<svg width="59" height="59" viewBox="0 0 59 59" fill="none" xmlns="http://www.w3.org/2000/svg">
<circle cx="29.5" cy="29.5" r="29.5" fill="#316BBF"/>
<path d="M23.6136 37.2784V36.7955C23.6231 35.1383 23.7699 33.8172 24.054 32.8324C24.3475 31.8475 24.7737 31.0521 25.3324 30.446C25.8911 29.84 26.5634 29.2907 27.3494 28.7983C27.9366 28.4195 28.4621 28.0265 28.9261 27.6193C29.3902 27.2121 29.7595 26.7623 30.0341 26.2699C30.3087 25.768 30.446 25.2093 30.446 24.5938C30.446 23.9403 30.2898 23.3674 29.9773 22.875C29.6648 22.3826 29.2434 22.0038 28.7131 21.7386C28.1922 21.4735 27.6146 21.3409 26.9801 21.3409C26.3646 21.3409 25.7822 21.4782 25.233 21.7528C24.6837 22.018 24.2339 22.4157 23.8835 22.946C23.5331 23.4669 23.3438 24.1155 23.3153 24.892H17.5199C17.5672 22.9981 18.0218 21.4356 18.8835 20.2045C19.7453 18.964 20.8864 18.0407 22.3068 17.4347C23.7273 16.8191 25.2945 16.5114 27.0085 16.5114C28.893 16.5114 30.5597 16.8239 32.0085 17.4489C33.4574 18.0644 34.5938 18.9593 35.4176 20.1335C36.2415 21.3078 36.6534 22.7235 36.6534 24.3807C36.6534 25.4886 36.4688 26.4735 36.0994 27.3352C35.7396 28.1875 35.233 28.9451 34.5795 29.608C33.9261 30.2614 33.1544 30.8532 32.2642 31.3835C31.5161 31.8286 30.9006 32.2926 30.4176 32.7756C29.9441 33.2585 29.589 33.8172 29.3523 34.4517C29.125 35.0862 29.0066 35.8674 28.9972 36.7955V37.2784H23.6136ZM26.4261 46.3693C25.4792 46.3693 24.6695 46.0379 23.9972 45.375C23.3343 44.7027 23.0076 43.8977 23.017 42.9602C23.0076 42.0322 23.3343 41.2367 23.9972 40.5739C24.6695 39.911 25.4792 39.5795 26.4261 39.5795C27.3258 39.5795 28.1165 39.911 28.7983 40.5739C29.4801 41.2367 29.8258 42.0322 29.8352 42.9602C29.8258 43.5852 29.66 44.1581 29.3381 44.679C29.0256 45.1903 28.6136 45.6023 28.1023 45.9148C27.5909 46.2178 27.0322 46.3693 26.4261 46.3693Z" fill="white"/>
</svg>
